HIERARCHY
ROOT Hips
{
  OFFSET 196.326 95.9168 97.7182
  CHANNELS 6 Xposition Yposition Zposition Zrotation Xrotation Yrotation
  JOINT LeftUpLeg
  {
    OFFSET 8.64259 1.95398 -2.38835
    CHANNELS 3 Zrotation Xrotation Yrotation
    JOINT LeftLeg
    {
      OFFSET 43.7702 0 0
      CHANNELS 3 Zrotation Xrotation Yrotation
      JOINT LeftFoot
      {
        OFFSET 40.6238 0 0
        CHANNELS 3 Zrotation Xrotation Yrotation
        JOINT LeftToeBase
        {
          OFFSET 12.7242 0 0
          CHANNELS 3 Zrotation Xrotation Yrotation
          End Site
          {
            OFFSET 0 0 0
          }
        }
      }
    }
  }
  JOINT RightUpLeg
  {
    OFFSET -8.2249 1.95398 -2.59336
    CHANNELS 3 Zrotation Xrotation Yrotation
    JOINT RightLeg
    {
      OFFSET 43.5653 0 0
      CHANNELS 3 Zrotation Xrotation Yrotation
      JOINT RightFoot
      {
        OFFSET 40.6238 0 0
        CHANNELS 3 Zrotation Xrotation Yrotation
        JOINT RightToeBase
        {
          OFFSET 12.7242 0 0
          CHANNELS 3 Zrotation Xrotation Yrotation
          End Site
          {
            OFFSET 0 0 0
          }
        }
      }
    }
  }
  JOINT Spine
  {
    OFFSET 0.165834 0.87714 6.61349
    CHANNELS 3 Zrotation Xrotation Yrotation
    JOINT Spine1
    {
      OFFSET 7.38963 1.71661e-005 0
      CHANNELS 3 Zrotation Xrotation Yrotation
      JOINT Spine2
      {
        OFFSET 11.9445 1.14441e-005 0
        CHANNELS 3 Zrotation Xrotation Yrotation
        JOINT Spine3
        {
          OFFSET 14.7254 4.19617e-005 0
          CHANNELS 3 Zrotation Xrotation Yrotation
          JOINT Spine4
          {
            OFFSET 10.9679 0 0
            CHANNELS 3 Zrotation Xrotation Yrotation
            JOINT RightShoulder
            {
              OFFSET 2.46616 -1.6653 3.69651
              CHANNELS 3 Zrotation Xrotation Yrotation
              JOINT RightArm
              {
                OFFSET 13.0012 0 0
                CHANNELS 3 Zrotation Xrotation Yrotation
                JOINT RightForeArm
                {
                  OFFSET 28.7848 1.52588e-005 0
                  CHANNELS 3 Zrotation Xrotation Yrotation
                  JOINT RightHand
                  {
                    OFFSET 26.5688 1.52588e-005 0
                    CHANNELS 3 Zrotation Xrotation Yrotation
                    End Site
                    {
                      OFFSET 0 0 0
                    }
                  }
                }
              }
            }
            JOINT LeftShoulder
            {
              OFFSET 2.38034 -1.29275 -3.75231
              CHANNELS 3 Zrotation Xrotation Yrotation
              JOINT LeftArm
              {
                OFFSET 16.3182 6.10351e-005 0
                CHANNELS 3 Zrotation Xrotation Yrotation
                JOINT LeftForeArm
                {
                  OFFSET 27.0901 0 0
                  CHANNELS 3 Zrotation Xrotation Yrotation
                  JOINT LeftHand
                  {
                    OFFSET 24.5451 1.52588e-005 0
                    CHANNELS 3 Zrotation Xrotation Yrotation
                    End Site
                    {
                      OFFSET 0 0 0
                    }
                  }
                }
              }
            }
            JOINT Neck
            {
              OFFSET 5.0226 -0.0266342 0
              CHANNELS 3 Zrotation Xrotation Yrotation
              JOINT Head
              {
                OFFSET 6.69363 2.86102e-005 0
                CHANNELS 3 Zrotation Xrotation Yrotation
                End Site
                {
                  OFFSET 0 0 0
                }
              }
            }
          }
        }
      }
    }
  }
}
MOTION
Frames:	6
Frame Time:	0.0416667
69.2751 95.558 -2.43171 88.1069 -43.3559 86.4276 -172.501 16.5311 87.3162 -18.8925 12.5986 -2.71184 55.7089 2.43863 16.6309 50.9657 14.8351 -41.7816 178.388 14.0743 87.6488 -54.6161 7.60343 -4.68553 53.5581 -0.965821 -0.399517 44.6964 2.31226 16.9306 0.484854 7.10641 -89.5686 12.6575 1.16903 0.724172 0.986863 1.19976 0.672006 -21.5494 0.897343 1.04204 -1.5368 0.897344 1.04203 80.4274 -49.9805 -115.268 15.7559 -13.7119 -2.77344 -11.7261 -10.3206 -58.1393 -11.1795 -0.930266 4.51948 -101.845 -40.4256 57.2112 -33.6793 6.25362 16.9417 3.6911 4.38382 -34.9793 12.4574 0.851806 2.88608 13.493 -0.548585 0.258375 -0.113126 -0.497719 1.76685 
59.9663 93.404 -7.41014 87.2357 -43.7713 84.9398 -172.577 25.7696 87.2669 -22.7667 10.6387 -2.45795 56.8206 2.43758 13.3011 31.055 4.16097 -30.0304 177.781 5.44833 85.8269 -51.9765 0.0610228 -6.10258 49.8293 0.879426 1.0049 45.0678 2.63948 19.9978 0.882529 7.01642 -89.409 12.8333 2.03553 0.937648 1.16367 2.07483 0.847115 -21.378 1.65963 1.50613 -1.36531 1.65964 1.50613 80.1845 -49.3606 -115.875 12.1527 -9.73971 -8.74841 -16.0584 -10.6446 -63.5631 -12.1718 -1.11887 5.75136 -101.622 -40.2599 57.4843 -35.4667 6.26014 19.5571 2.18378 5.60453 -26.6053 11.7058 0.943035 3.98589 14.1236 -2.17315 -0.896704 -0.189851 -1.71984 2.81888 
49.3506 92.7288 -13.4405 86.1439 -45.7429 86.5354 -173.836 30.016 91.062 -15.8429 8.87397 -1.12431 58.1007 3.54178 13.2691 51.5122 20.2627 -17.1183 178.895 0.137365 88.8575 -38.0184 -3.15614 -5.96731 56.2642 -0.20936 0.146611 58.7479 7.30205 26.3517 1.2263 7.01766 -89.7781 12.8444 2.5412 0.135252 1.17601 2.54469 0.0232006 -21.3775 2.383 0.893163 -1.36489 2.38303 0.893172 79.945 -46.406 -117.458 12.4438 -6.34878 -12.3968 -17.1619 -11.2937 -62.7956 -11.6251 -1.14177 6.47684 -102.459 -41.9047 56.9557 -35.1309 4.49064 19.2605 1.56309 3.69193 -21.13 11.7679 1.00864 4.47235 12.927 -1.3724 1.68011 0.406533 -1.64897 1.82534 
38.3969 93.5396 -19.9236 87.1977 -44.1934 89.8583 -173.177 27.2338 93.2821 -7.12986 6.08569 -0.946639 59.9458 7.531 15.9694 56.631 25.1632 -14.622 177.576 2.41188 92.7064 -32.4879 4.32544 -1.67828 69.0245 -3.5604 -1.8959 51.1319 4.28933 20.91 1.02788 7.1975 -90.2003 12.4834 1.94701 -0.622851 0.813722 1.91771 -0.707973 -21.7331 2.04416 -0.00865744 -1.72042 2.04416 -0.00866292 81.3288 -45.8139 -115.579 13.7345 -9.14331 -13.0599 -14.0366 -11.5555 -59.3042 -11.3072 -1.04379 5.68797 -103.749 -42.759 55.3822 -34.0078 4.6315 18.3815 1.85049 2.91478 -24.4609 12.2343 0.969506 3.87604 12.5201 -0.462929 3.42662 1.09258 -1.19967 1.49375 
29.9976 95.3292 -24.6328 88.9957 -40.5061 89.4068 -172 23.2312 90.9836 -19.9943 7.50769 -1.409 53.6629 1.52924 12.2106 54.5529 23.0384 -15.9361 178.149 6.69086 93.3767 -31.9735 8.75864 -0.901539 68.7014 -2.80624 -1.4776 42.9381 2.03811 18.8002 0.548154 7.2455 -90.0472 12.3844 1.06685 -0.215538 0.713851 1.05634 -0.2623 -21.8246 1.0823 0.115094 -1.81196 1.08228 0.115082 79.3925 -48.5672 -117.381 15.9387 -13.498 -2.86924 -12.774 -13.3181 -54.1237 -10.8333 -0.94518 4.8896 -104.053 -42.4824 54.7869 -32.3061 5.94652 15.677 1.94918 3.09776 -28.9625 15.7749 1.12433 3.24368 11.0835 -0.790901 2.5031 1.09422 -1.25076 1.62528 
23.1203 96.7712 -29.2338 90.4711 -38.2155 88.7381 -170.889 16.2444 89.8832 -36.731 9.83571 -1.67345 52.3497 0.741412 12.6319 49.29 19.8064 -10.9716 178.15 10.6379 92.0617 -31.0091 9.17782 -0.645783 64.1382 -1.13703 -0.569074 38.783 1.11965 19.7683 0.235437 7.19352 -89.8969 12.4866 0.516856 0.146449 0.815726 0.522809 0.123558 -21.72 0.448965 0.29503 -1.70737 0.448943 0.295014 79.6585 -50.7036 -116.114 21.0371 -16.3262 8.27364 -10.4073 -17.8427 -45.315 -7.09019 -0.650267 4.10796 -103.455 -41.745 55.3419 -29.6955 6.05525 12.7697 3.96054 3.63886 -38.0386 17.7456 1.24358 3.14034 9.89056 -1.04764 1.88738 0.592999 -1.32281 1.99255 
